<?xml version="1.0" standalone="no"?>
<!DOCTYPE svg PUBLIC "-//W3C//DTD SVG 20010904//EN"
 "http://www.w3.org/TR/2001/REC-SVG-20010904/DTD/svg10.dtd">
<svg version="1.0" xmlns="http://www.w3.org/2000/svg"
 width="1920.000000pt" height="1080.000000pt" viewBox="0 0 1920.000000 1080.000000"
 preserveAspectRatio="xMidYMid meet">

<g transform="translate(0.000000,1080.000000) scale(0.100000,-0.100000)"
fill="#000000" stroke="none">
<path d="M0 5400 l0 -5400 9600 0 9600 0 0 5400 0 5400 -9600 0 -9600 0 0
-5400z m9867 2354 c81 -39 113 -133 71 -214 -29 -56 -73 -82 -137 -82 -91 0
-153 61 -154 151 -1 64 27 110 83 139 53 26 90 28 137 6z m-510 -36 l43 -42
43 42 c23 23 47 42 52 42 12 0 55 -41 55 -54 0 -6 -19 -30 -42 -53 l-42 -43
42 -43 c23 -23 42 -47 42 -52 0 -12 -41 -55 -54 -55 -6 0 -30 19 -53 42 l-43
42 -43 -42 c-23 -23 -47 -42 -52 -42 -12 0 -55 41 -55 54 0 6 19 30 42 53 l42
43 -42 43 c-23 23 -42 47 -42 52 0 12 41 55 54 55 6 0 30 -19 53 -42z m-620
-994 c8 -22 -9 -48 -36 -52 -13 -2 -21 -11 -21 -23 0 -10 -4 -19 -10 -19 -5 0
-10 25 -10 55 l0 55 35 0 c24 0 38 -5 42 -16z m53 -39 c0 -30 -4 -55 -10 -55
-5 0 -10 25 -10 55 0 30 5 55 10 55 6 0 10 -25 10 -55z m120 45 c0 -5 -13 -10
-29 -10 -21 0 -32 -6 -36 -20 -9 -29 13 -53 41 -46 13 4 25 2 29 -4 9 -15 -44
-24 -71 -11 -18 8 -24 18 -24 44 0 18 5 38 12 45 14 14 78 16 78 2z m61 -12
l0 -23 16 23 c8 12 22 22 30 22 13 0 13 -4 -2 -26 -16 -25 -16 -28 4 -55 26
-35 8 -39 -26 -7 l-23 21 0 -21 c0 -13 -6 -22 -15 -22 -12 0 -15 13 -15 55 0
42 3 55 15 55 9 0 15 -9 16 -22z m216 6 c8 -22 -9 -48 -36 -52 -13 -2 -21 -11
-21 -23 0 -10 -4 -19 -10 -19 -5 0 -10 25 -10 55 l0 55 35 0 c24 0 38 -5 42
-16z m53 -29 c0 -41 2 -45 25 -45 14 0 25 -4 25 -10 0 -5 -16 -10 -35 -10
l-35 0 0 55 c0 30 5 55 10 55 6 0 10 -20 10 -45z m144 12 c27 -65 28 -77 12
-77 -9 0 -16 5 -16 10 0 14 -47 13 -52 -1 -2 -7 -9 -10 -15 -8 -15 6 26 109
43 109 8 0 20 -15 28 -33z m70 17 c6 -15 8 -15 26 1 27 24 37 12 16 -19 -9
-14 -16 -37 -16 -51 0 -16 -6 -25 -15 -25 -10 0 -15 10 -15 28 0 16 -7 37 -15
48 -18 24 -19 34 -1 34 8 0 17 -7 20 -16z m166 6 c0 -5 -13 -10 -30 -10 -16 0
-30 -4 -30 -10 0 -5 11 -10 25 -10 14 0 25 -4 25 -10 0 -5 -11 -10 -25 -10
-16 0 -25 -6 -25 -15 0 -10 10 -15 30 -15 17 0 30 -4 30 -10 0 -5 -18 -10 -40
-10 l-40 0 0 55 0 55 40 0 c22 0 40 -4 40 -10z m109 -14 c2 -11 -4 -25 -13
-32 -14 -10 -15 -13 -1 -24 8 -7 15 -16 15 -21 0 -16 -22 -9 -41 14 l-18 22
-1 -22 c0 -13 -4 -23 -10 -23 -5 0 -10 25 -10 56 l0 55 37 -3 c28 -2 39 -8 42
-22z m111 -31 c0 -42 -3 -55 -15 -55 -11 0 -15 12 -15 45 0 25 -4 45 -10 45
-5 0 -10 5 -10 10 0 6 11 10 25 10 24 0 25 -3 25 -55z m60 47 c0 -5 -6 -17
-14 -27 -13 -18 -13 -17 -13 8 0 16 5 27 13 27 8 0 14 -4 14 -8z m90 -1 c0 -5
-12 -11 -27 -13 l-28 -4 28 -14 c21 -10 27 -20 25 -39 -3 -22 -8 -26 -35 -26
-18 0 -33 5 -33 10 1 6 12 9 25 7 32 -4 32 12 0 26 -23 11 -33 40 -18 55 10
11 63 8 63 -2z m106 -16 c9 -14 20 -25 23 -25 4 0 14 11 21 25 23 44 40 31 40
-30 0 -42 -3 -55 -15 -55 -10 0 -15 10 -15 28 -1 26 -1 26 -16 7 -15 -20 -15
-20 -30 -1 -13 19 -14 19 -14 -7 0 -17 -5 -27 -15 -27 -12 0 -15 13 -15 55 0
60 11 69 36 30z m188 -8 c27 -65 28 -77 12 -77 -9 0 -16 5 -16 10 0 14 -47 13
-52 -1 -2 -7 -9 -10 -15 -8 -15 6 26 109 43 109 8 0 20 -15 28 -33z m134 5 c2
-13 -3 -24 -12 -28 -14 -5 -14 -8 1 -30 20 -31 -1 -33 -28 -1 l-18 22 -1 -22
c0 -13 -4 -23 -10 -23 -5 0 -10 25 -10 56 l0 55 38 -3 c30 -2 38 -7 40 -26z
m52 6 l0 -21 23 21 c33 31 57 29 28 -2 l-23 -25 22 -28 c30 -38 5 -45 -26 -7
l-23 29 -1 -27 c0 -16 -4 -28 -10 -28 -5 0 -10 25 -10 55 0 30 5 55 10 55 6 0
10 -10 10 -22z m1090 -488 c19 -19 20 -33 20 -250 0 -217 -1 -231 -20 -250
-20 -20 -33 -20 -970 -20 -937 0 -950 0 -970 20 -19 19 -20 33 -20 250 0 217
1 231 20 250 20 20 33 20 970 20 937 0 950 0 970 -20z m-2901 -136 l50 49 32
-32 32 -32 -49 -50 -48 -49 48 -49 49 -50 -32 -32 -32 -32 -50 49 -49 48 -49
-48 -50 -49 -32 32 -32 32 49 50 48 49 -48 49 -49 50 32 32 32 32 50 -49 49
-48 49 48z m3151 -1526 c33 -17 51 -35 68 -68 22 -43 23 -53 20 -267 -3 -243
-4 -247 -72 -297 l-27 -21 -2199 0 -2199 0 -27 21 c-68 50 -69 54 -72 297 -3
214 -2 224 20 267 17 33 35 51 68 68 l44 22 2166 0 2166 0 44 -22z m0 -880
c33 -17 51 -35 68 -68 20 -41 22 -58 22 -221 0 -167 -1 -178 -23 -210 -12 -18
-38 -44 -56 -56 l-34 -23 -2187 0 -2187 0 -34 23 c-18 12 -44 38 -56 56 -22
32 -23 43 -23 210 0 163 2 180 23 221 16 33 34 51 67 68 l44 22 2166 0 2166 0
44 -22z"/>
<path d="M9780 7673 c-64 -23 -46 -123 21 -123 39 0 62 23 62 60 0 48 -40 79
-83 63z"/>
<path d="M8680 6705 c0 -10 7 -15 18 -13 21 4 19 22 -2 26 -10 2 -16 -3 -16
-13z"/>
<path d="M9130 6705 c0 -10 7 -15 18 -13 21 4 19 22 -2 26 -10 2 -16 -3 -16
-13z"/>
<path d="M9346 6685 c-3 -9 0 -15 9 -15 16 0 20 16 6 24 -5 3 -11 -1 -15 -9z"/>
<path d="M9670 6710 c0 -5 7 -10 15 -10 8 0 15 5 15 10 0 6 -7 10 -15 10 -8 0
-15 -4 -15 -10z"/>
<path d="M10246 6685 c-3 -9 0 -15 9 -15 16 0 20 16 6 24 -5 3 -11 -1 -15 -9z"/>
<path d="M10360 6710 c0 -5 7 -10 15 -10 8 0 15 5 15 10 0 6 -7 10 -15 10 -8
0 -15 -4 -15 -10z"/>
<path d="M10525 6126 c-101 -44 -125 -178 -46 -257 112 -113 296 -12 267 146
-18 94 -131 151 -221 111z m109 -102 c9 -8 16 -28 16 -44 0 -16 -7 -36 -16
-44 -8 -9 -28 -16 -44 -16 -16 0 -36 7 -44 16 -9 8 -16 28 -16 44 0 16 7 36
16 44 8 9 28 16 44 16 16 0 36 -7 44 -16z"/>
<path d="M9784 4328 c-19 -37 -14 -102 10 -126 22 -22 28 -11 15 27 -11 30 -9
60 6 109 11 34 -12 27 -31 -10z"/>
<path d="M10617 4354 c-3 -4 0 -16 8 -28 18 -25 19 -66 3 -101 -14 -30 -3 -45
18 -24 23 24 28 80 10 122 -14 36 -25 44 -39 31z"/>
<path d="M8530 4280 c0 -63 2 -70 19 -70 16 0 20 8 23 37 l3 37 25 -37 c38
-56 50 -48 50 33 0 56 -3 70 -15 70 -11 0 -15 -11 -15 -37 l-1 -38 -32 38
c-47 55 -57 49 -57 -33z"/>
<path d="M8690 4280 l0 -70 55 0 c42 0 55 3 55 15 0 10 -11 15 -35 15 -24 0
-35 5 -35 15 0 10 10 15 30 15 20 0 30 5 30 15 0 10 -10 15 -30 15 -16 0 -30
5 -30 10 0 6 14 10 30 10 20 0 30 5 30 15 0 11 -12 15 -50 15 l-50 0 0 -70z"/>
<path d="M8820 4343 c0 -28 44 -133 56 -133 7 0 19 19 26 41 l12 42 14 -42
c19 -57 38 -52 58 17 9 31 19 63 22 71 3 8 -1 12 -13 10 -10 -2 -23 -19 -30
-39 l-12 -35 -12 38 c-16 49 -37 47 -53 -5 l-13 -42 -11 39 c-6 23 -18 41 -27
43 -10 2 -17 0 -17 -5z"/>
<path d="M9102 4327 c-28 -29 -28 -57 -1 -91 37 -47 111 -31 125 27 6 26 5 27
-35 27 -30 0 -41 -4 -41 -15 0 -9 9 -15 22 -15 16 0 19 -3 11 -11 -6 -6 -21
-9 -34 -7 -20 2 -24 9 -24 38 0 34 1 35 40 35 29 0 40 4 40 15 0 10 -12 16
-40 18 -32 2 -45 -2 -63 -21z"/>
<path d="M9285 4316 c-48 -116 -46 -106 -24 -106 10 0 19 5 19 10 0 14 46 13
70 -2 32 -20 34 -2 7 64 -30 75 -51 85 -72 34z m45 -48 c0 -5 -7 -8 -15 -8
-17 0 -18 2 -9 25 5 13 8 14 15 3 5 -7 9 -16 9 -20z"/>
<path d="M9410 4280 c0 -56 3 -70 15 -70 11 0 15 11 15 37 0 37 0 37 16 15 18
-27 32 -28 50 -4 12 15 13 14 14 -15 0 -26 4 -33 20 -33 18 0 20 7 20 70 0 82
-15 91 -54 34 l-24 -36 -24 36 c-36 56 -48 47 -48 -34z"/>
<path d="M9590 4280 l0 -70 55 0 c42 0 55 3 55 15 0 10 -11 15 -35 15 -24 0
-35 5 -35 15 0 10 10 15 30 15 20 0 30 5 30 15 0 10 -10 15 -30 15 -40 0 -39
18 2 22 17 2 33 9 36 16 3 8 -12 12 -52 12 l-56 0 0 -70z"/>
<path d="M9869 4283 c15 -37 34 -69 43 -71 10 -2 22 15 35 50 12 29 24 61 28
71 5 13 2 17 -12 17 -14 0 -23 -11 -32 -41 -14 -45 -20 -44 -37 4 -7 20 -18
33 -32 35 -21 3 -21 2 7 -65z"/>
<path d="M10011 4336 c-18 -21 -10 -48 17 -62 13 -6 29 -17 35 -24 9 -9 5 -11
-18 -10 -54 4 -59 2 -45 -15 15 -18 71 -20 88 -3 21 21 13 48 -18 66 -37 21
-38 30 -2 34 39 4 33 22 -9 26 -23 2 -40 -2 -48 -12z"/>
<path d="M10195 4330 c-10 -11 -18 -34 -18 -50 0 -46 29 -72 77 -68 29 2 41 8
41 18 0 11 -9 14 -31 12 -38 -4 -59 18 -50 54 6 22 11 25 44 22 28 -2 37 1 37
12 0 25 -77 26 -100 0z"/>
<path d="M10330 4280 c0 -63 2 -70 20 -70 14 0 20 7 20 23 0 17 8 25 33 32 22
7 33 17 35 33 5 35 -15 52 -64 52 l-44 0 0 -70z m78 28 c-7 -19 -38 -22 -38
-4 0 10 9 16 21 16 12 0 19 -5 17 -12z"/>
<path d="M10470 4292 c0 -66 11 -82 56 -82 43 0 64 30 64 92 0 41 -3 48 -20
48 -18 0 -20 -7 -20 -56 0 -52 -1 -55 -22 -52 -20 3 -23 10 -26 56 -2 37 -7
52 -18 52 -10 0 -14 -14 -14 -58z"/>
<path d="M8944 3470 c-26 -10 -54 -48 -54 -71 0 -9 9 -28 21 -43 40 -51 129
-26 129 36 0 14 -8 18 -40 18 -29 0 -40 -4 -40 -15 0 -8 9 -15 21 -15 11 0 17
-4 14 -10 -9 -15 -41 -12 -55 5 -7 9 -10 25 -6 41 6 24 10 26 47 21 41 -5 57
4 36 21 -20 16 -51 21 -73 12z"/>
<path d="M9595 3446 c-8 -19 -15 -45 -15 -56 0 -24 27 -80 39 -80 17 0 18 12
4 42 -13 25 -14 37 -3 72 15 49 15 49 1 54 -6 2 -18 -12 -26 -32z"/>
<path d="M9832 3464 c-30 -21 -25 -55 11 -72 37 -18 35 -36 -3 -29 -32 7 -51
-10 -29 -24 20 -13 73 -11 87 3 21 21 13 48 -18 66 -34 19 -40 37 -10 29 10
-3 24 1 31 9 9 11 6 16 -16 24 -32 12 -26 13 -53 -6z"/>
<path d="M10808 3475 c-3 -3 0 -22 8 -43 13 -37 10 -77 -9 -100 -12 -16 -3
-26 17 -19 26 10 39 76 24 121 -12 38 -28 53 -40 41z"/>
<path d="M8340 3400 c0 -63 2 -70 20 -70 16 0 20 7 20 37 l0 36 28 -36 c41
-55 52 -48 52 33 0 56 -3 70 -15 70 -11 0 -15 -11 -15 -37 l-1 -38 -32 38
c-47 55 -57 49 -57 -33z"/>
<path d="M8500 3400 l0 -70 55 0 c42 0 55 3 55 15 0 10 -11 15 -35 15 -24 0
-35 5 -35 15 0 10 10 15 30 15 20 0 30 5 30 15 0 10 -10 15 -30 15 -16 0 -30
5 -30 10 0 6 14 10 30 10 20 0 30 5 30 15 0 11 -12 15 -50 15 l-50 0 0 -70z"/>
<path d="M8630 3463 c0 -4 9 -35 19 -68 23 -75 45 -83 62 -24 l13 41 11 -38
c17 -61 41 -56 61 13 9 32 19 64 21 71 3 7 -3 12 -15 12 -15 0 -22 -9 -27 -37
l-8 -38 -15 38 c-19 49 -43 45 -56 -8 l-10 -40 -11 40 c-7 23 -19 41 -28 43
-10 2 -17 0 -17 -5z"/>
<path d="M9079 3403 c-23 -59 -24 -68 -11 -72 9 -2 18 2 20 8 5 15 47 14 72
-1 32 -20 34 -2 7 64 -35 89 -54 89 -88 1z m49 -22 c-15 -5 -19 4 -11 24 6 18
7 18 13 -1 4 -10 3 -21 -2 -23z"/>
<path d="M9220 3400 c0 -63 2 -70 20 -70 16 0 20 7 20 33 1 26 2 29 11 15 5
-10 16 -18 24 -18 8 0 19 8 24 18 9 14 10 11 11 -15 0 -26 4 -33 20 -33 18 0
20 7 20 70 0 82 -17 93 -51 35 -12 -19 -22 -35 -24 -35 -2 0 -13 16 -25 35
-35 57 -50 46 -50 -35z"/>
<path d="M9400 3400 l0 -70 55 0 c42 0 55 3 55 15 0 10 -11 15 -35 15 -24 0
-35 5 -35 15 0 10 10 15 30 15 20 0 30 5 30 15 0 10 -10 15 -30 15 -40 0 -39
18 2 22 17 2 33 9 36 16 3 8 -12 12 -52 12 l-56 0 0 -70z"/>
<path d="M9671 3418 c12 -29 24 -61 26 -70 11 -36 40 -19 61 35 11 28 23 60
27 70 5 13 2 17 -13 17 -15 0 -24 -11 -35 -42 -10 -28 -17 -38 -21 -28 -3 8
-10 27 -15 43 -7 17 -18 27 -31 27 -20 0 -20 0 1 -52z"/>
<path d="M9990 3400 c0 -63 2 -70 20 -70 14 0 20 7 20 23 0 17 8 25 33 32 22
7 33 17 35 33 5 35 -15 52 -64 52 l-44 0 0 -70z m70 25 c0 -8 -7 -15 -15 -15
-8 0 -15 7 -15 15 0 8 7 15 15 15 8 0 15 -7 15 -15z"/>
<path d="M10130 3400 l0 -70 50 0 c38 0 50 4 50 15 0 10 -11 15 -35 15 l-35 0
0 55 c0 42 -3 55 -15 55 -12 0 -15 -14 -15 -70z"/>
<path d="M10266 3404 c-28 -70 -27 -86 4 -66 25 15 67 16 72 1 2 -6 11 -10 19
-8 14 4 13 13 -9 72 -33 89 -51 89 -86 1z m54 -16 c0 -5 -6 -8 -14 -8 -9 0
-12 7 -9 21 4 16 8 17 14 7 5 -7 9 -16 9 -20z"/>
<path d="M10404 3426 c14 -25 26 -56 26 -70 0 -16 6 -26 15 -26 10 0 15 10 15
27 0 14 11 46 25 70 25 41 25 43 6 43 -11 0 -26 -10 -32 -22 l-12 -22 -15 22
c-8 12 -23 22 -34 22 -19 0 -19 -2 6 -44z"/>
<path d="M10530 3400 l0 -70 55 0 c42 0 55 3 55 15 0 10 -11 15 -35 15 -24 0
-35 5 -35 15 0 10 10 15 30 15 20 0 30 5 30 15 0 10 -10 15 -30 15 -40 0 -39
18 2 22 17 2 33 9 36 16 3 8 -12 12 -52 12 l-56 0 0 -70z"/>
<path d="M10670 3400 c0 -56 3 -70 15 -70 10 0 15 10 15 28 l0 27 23 -29 c14
-17 30 -27 41 -25 17 4 16 6 -4 32 -12 15 -17 27 -11 27 19 0 33 38 21 60 -8
15 -21 20 -55 20 l-45 0 0 -70z m68 28 c-7 -19 -38 -22 -38 -4 0 10 9 16 21
16 12 0 19 -5 17 -12z"/>
</g>
</svg>
